# xmcd
#
# Track frame offsets: 
#        150
#        21238
#        46057
#        64247
#        77551
#        92367
#        106469
#        125263
#        144638
#        168046
#
# Disc length: 2452 seconds
#
# Revision: 0
# Processed by: cddbd v1.5.2PL0 Copyright (c) Steve Scherf et al.
# Submitted via: ExactAudioCopy v0.95b3
#
DISCID=7509920a
DTITLE=Bernie Facett - Back To The Start
DYEAR=2006
DGENRE=Blues
TTITLE0=Let It Flow
TTITLE1=Blessed With Affection
TTITLE2=Good In Blue
TTITLE3=Off To New Orleans
TTITLE4=A Good Day To Fly
TTITLE5=Fariba
TTITLE6=Spring In A Small Town
TTITLE7=Nadia
TTITLE8=All In The Playing
TTITLE9=All We Have
EXTD=
EXTT0=
EXTT1=
EXTT2=
EXTT3=
EXTT4=
EXTT5=
EXTT6=
EXTT7=
EXTT8=
EXTT9=
PLAYORDER=
